<?xml version="1.0" encoding="utf-8"?>
<!-- Generator: Adobe Illustrator 23.0.1, SVG Export Plug-In . SVG Version: 6.00 Build 0)  -->
<svg version="1.1" id="d" xmlns="http://www.w3.org/2000/svg" xmlns:xlink="http://www.w3.org/1999/xlink" x="0px" y="0px"
	 width="92.1px" height="143px" viewBox="0 0 92.1 143" style="enable-background:new 0 0 92.1 143;" xml:space="preserve">
<style type="text/css">
	.st0{fill:#DB0031;}
	.st1{fill:#FFFFFF;}
</style>
<g>
	<path class="st0" d="M14.6,132.7c0,2.9-0.2,4.1-1,5.4c-1,1.6-3.1,2.7-5,2.7c-3.3,0-6-2.8-6-6.2s2.7-6.2,6-6.2
		c1.4,0,3.1,0.6,4.3,1.6c0.2,0.2,0.5,0.5,0.9,0.9V128c-1.1-0.8-1.6-1.1-2.6-1.4c-0.8-0.2-1.7-0.4-2.6-0.4c-4.7,0-8.4,3.7-8.4,8.4
		c0,4.6,3.8,8.4,8.4,8.4c2.6,0,5.2-1.3,6.7-3.3c1.3-1.8,1.7-3.6,1.7-7v-12.4h-2.3v12.4H14.6z"/>
	<rect x="18.2" y="132.5" class="st0" width="7.6" height="2.1"/>
	<path class="st0" d="M43.8,126.2c-1.7,0-3.5,0.7-4.5,1.9c-0.1,0.2-0.4,0.4-0.6,0.8c-0.9-1.3-1.4-1.7-2.6-2.3
		c-0.8-0.3-1.7-0.5-2.6-0.5c-1.8,0-3.7,0.8-4.8,2.2c-1.1,1.3-1.5,2.8-1.5,5.5v8.7h2.3v-8.7c0-3.5,1.4-5.5,3.9-5.5
		c1.2,0,2.5,0.6,3.2,1.6c0.6,0.8,0.9,1.9,0.9,3.9v8.7h2.3v-8c0-2,0.2-3.1,0.6-4c0.6-1.2,2-2.1,3.4-2.1s2.8,0.8,3.4,2.1
		c0.4,1,0.6,1.9,0.6,3.8v8.3h2.3v-8.1c0-3.1-0.3-4.3-1.3-5.7C47.7,127.2,45.8,126.2,43.8,126.2z"/>
	<rect x="53.3" y="126.5" class="st0" width="2.3" height="16.2"/>
	<path class="st0" d="M54.4,120.1c-0.8,0-1.5,0.7-1.5,1.5c0,0.9,0.7,1.6,1.5,1.6c0.9,0,1.6-0.7,1.6-1.6
		C55.9,120.8,55.2,120.1,54.4,120.1z"/>
	<path class="st0" d="M65.9,126.2c-2.1,0-4,0.8-5.3,2.3c-1.4,1.6-1.9,3.1-1.9,6.1v8.1H61v-8.3c0-2.6,0.6-4.1,2.2-5.1
		c0.8-0.5,1.7-0.8,2.6-0.8c1.9,0,3.8,1.3,4.4,3c0.3,0.8,0.4,1.8,0.4,2.9v8.3h2.3v-8.1c0-3-0.5-4.5-1.9-6.1
		C69.9,127.1,68,126.2,65.9,126.2z"/>
	<path class="st0" d="M89.7,132.7c0,2.9-0.2,4.1-1,5.4c-1,1.6-3.1,2.7-5,2.7c-3.3,0-6-2.8-6-6.2s2.7-6.2,6-6.2
		c1.4,0,3.1,0.6,4.3,1.6c0.2,0.2,0.5,0.5,0.9,0.9V128c-1.1-0.8-1.6-1.1-2.6-1.4c-0.8-0.2-1.7-0.4-2.6-0.4c-4.7,0-8.4,3.7-8.4,8.4
		c0,4.6,3.8,8.4,8.4,8.4c2.6,0,5.2-1.3,6.7-3.3c1.3-1.8,1.7-3.6,1.7-7v-12.4h-2.3L89.7,132.7L89.7,132.7z"/>
	<path class="st0" d="M85.3,0H6.7C3,0,0,3,0,6.7v98c0,3.7,3,6.7,6.7,6.7h78.5c3.7,0,6.7-3,6.7-6.7v-98C92,3,89,0,85.3,0z M77.8,56.4
		c0,13.4-1.7,20.3-6.8,27.2c-5.7,7.8-15.7,12.7-25.8,12.7c-17.8,0-32.4-14.6-32.4-32.5c0.1-18,14.4-32.3,32.5-32.3
		c3.4,0,6.8,0.5,10,1.4c4,1.3,5.9,2.3,10.1,5.5v11.3c-1.6-1.6-2.7-2.7-3.6-3.4c-4.6-3.8-11.2-6.1-16.7-6.1c-12.7,0-23,10.7-23,23.8
		c0,13,10.4,23.8,23.3,23.8c7.5,0,15.4-4.3,19.4-10.5c3.1-4.9,4-9.8,4-20.8v-48h9V56.4z"/>
	<path class="st1" d="M68.9,56.4c0,11.1-0.9,15.9-4,20.8C60.8,83.5,53,87.8,45.4,87.8C32.5,87.8,22.1,77,22.1,64
		c0-13.1,10.3-23.8,23-23.8c5.5,0,12.1,2.3,16.7,6.1c0.9,0.7,2.1,1.8,3.6,3.4V38.4c-4.3-3.1-6.1-4.2-10.1-5.5
		c-3.3-0.9-6.6-1.4-10-1.4c-18.1,0-32.4,14.3-32.4,32.4c0,18,14.6,32.5,32.4,32.5c10,0,20-4.9,25.8-12.7c5.1-6.9,6.8-13.8,6.8-27.2
		v-48h-9C68.9,8.5,68.9,56.4,68.9,56.4z"/>
</g>
</svg>
